<?xml version="1.0" encoding="utf-8"?>
<!-- Generator: Adobe Illustrator 25.2.1, SVG Export Plug-In . SVG Version: 6.00 Build 0)  -->
<svg version="1.1" id="Calque_1" xmlns="http://www.w3.org/2000/svg" xmlns:xlink="http://www.w3.org/1999/xlink" x="0px" y="0px"
	 viewBox="0 0 473.3 16.7" style="enable-background:new 0 0 473.3 16.7;" xml:space="preserve">
<g>
	<path d="M459.4,16.7c-5.2,0-7.8-3.7-9.7-6.5c-1.8-2.6-2.7-3.6-4.2-3.6c-1.6,0-2.5,1.1-4.2,3.6c-1.9,2.7-4.5,6.5-9.7,6.5
		c-5.2,0-7.8-3.7-9.7-6.5c-1.8-2.6-2.7-3.6-4.2-3.6c-1.6,0-2.5,1.1-4.2,3.6c-1.9,2.7-4.5,6.5-9.7,6.5c-5.2,0-7.8-3.7-9.7-6.5
		c-1.8-2.6-2.7-3.6-4.2-3.6c-1.6,0-2.5,1.1-4.2,3.6c-1.9,2.7-4.5,6.5-9.7,6.5c-5.2,0-7.8-3.7-9.7-6.5c-1.8-2.6-2.7-3.6-4.2-3.6
		c-1.6,0-2.5,1.1-4.2,3.6c-1.9,2.7-4.5,6.5-9.7,6.5c-5.2,0-7.8-3.7-9.7-6.5c-1.8-2.6-2.7-3.6-4.2-3.6c-1.6,0-2.5,1.1-4.2,3.6
		c-1.9,2.7-4.5,6.5-9.7,6.5c-5.2,0-7.8-3.7-9.7-6.5c-1.8-2.6-2.7-3.6-4.2-3.6c-1.6,0-2.5,1.1-4.2,3.6c-1.9,2.7-4.5,6.5-9.7,6.5
		c-5.2,0-7.8-3.7-9.7-6.5c-1.8-2.6-2.7-3.6-4.2-3.6c-1.6,0-2.5,1-4.2,3.6c-1.9,2.7-4.5,6.5-9.7,6.5c-5.2,0-7.8-3.7-9.7-6.5
		c-1.8-2.6-2.7-3.6-4.2-3.6c-1.6,0-2.5,1.1-4.2,3.6c-1.9,2.7-4.5,6.5-9.7,6.5s-7.8-3.7-9.7-6.5c-1.8-2.6-2.7-3.6-4.2-3.6
		s-2.5,1.1-4.2,3.6c-1.9,2.7-4.5,6.5-9.7,6.5c-5.2,0-7.8-3.7-9.7-6.5c-1.8-2.6-2.7-3.6-4.2-3.6s-2.5,1.1-4.2,3.6
		c-1.9,2.7-4.5,6.5-9.7,6.5c-5.2,0-7.8-3.7-9.7-6.5c-1.8-2.6-2.7-3.6-4.2-3.6c-1.6,0-2.5,1.1-4.2,3.6c-1.9,2.7-4.5,6.5-9.7,6.5
		c-5.2,0-7.8-3.7-9.7-6.5c-1.8-2.6-2.7-3.6-4.2-3.6c-1.6,0-2.5,1.1-4.2,3.6c-1.9,2.7-4.5,6.5-9.7,6.5c-5.2,0-7.8-3.7-9.7-6.5
		c-1.8-2.6-2.7-3.6-4.2-3.6c-1.6,0-2.5,1.1-4.2,3.6c-1.9,2.7-4.5,6.5-9.7,6.5c-5.2,0-7.8-3.7-9.7-6.5c-1.8-2.6-2.7-3.6-4.2-3.6
		c-1.6,0-2.5,1.1-4.2,3.6c-1.9,2.7-4.5,6.5-9.7,6.5s-7.8-3.7-9.7-6.5c-1.8-2.6-2.7-3.6-4.2-3.6c-1.6,0-2.5,1.1-4.2,3.6
		c-1.9,2.7-4.5,6.5-9.7,6.5c-5.2,0-7.8-3.7-9.7-6.5c-1.8-2.6-2.7-3.6-4.2-3.6c-1.6,0-2.5,1.1-4.2,3.6c-1.9,2.7-4.5,6.5-9.7,6.5
		S6.1,13,4.2,10.2C2.5,7.6,1.6,6.6,0,6.6V0c5.2,0,7.8,3.7,9.7,6.5c1.8,2.6,2.7,3.6,4.2,3.6c1.6,0,2.5-1.1,4.2-3.6
		C20,3.7,22.6,0,27.8,0s7.8,3.7,9.7,6.5c1.8,2.6,2.7,3.6,4.2,3.6c1.6,0,2.5-1.1,4.2-3.6C47.9,3.7,50.5,0,55.7,0s7.8,3.7,9.7,6.5
		c1.8,2.6,2.7,3.6,4.2,3.6c1.6,0,2.5-1.1,4.2-3.6C75.7,3.7,78.3,0,83.5,0s7.8,3.7,9.7,6.5c1.8,2.6,2.7,3.6,4.2,3.6
		c1.6,0,2.5-1.1,4.2-3.6c1.9-2.7,4.5-6.5,9.7-6.5s7.8,3.7,9.7,6.5c1.8,2.6,2.7,3.6,4.2,3.6c1.6,0,2.5-1.1,4.2-3.6
		c1.9-2.7,4.5-6.5,9.7-6.5c5.2,0,7.8,3.7,9.7,6.5c1.8,2.6,2.7,3.6,4.2,3.6c1.6,0,2.5-1.1,4.2-3.6c1.9-2.7,4.5-6.5,9.7-6.5
		s7.8,3.7,9.7,6.5c1.8,2.6,2.7,3.6,4.2,3.6c1.6,0,2.5-1.1,4.2-3.6c1.9-2.7,4.5-6.5,9.7-6.5c5.2,0,7.8,3.7,9.7,6.5
		c1.8,2.6,2.7,3.6,4.2,3.6c1.6,0,2.5-1.1,4.2-3.6c1.9-2.7,4.5-6.5,9.7-6.5s7.8,3.7,9.7,6.5c1.8,2.6,2.7,3.6,4.2,3.6s2.5-1.1,4.2-3.6
		c1.9-2.7,4.5-6.5,9.7-6.5c5.2,0,7.8,3.7,9.7,6.5c1.8,2.6,2.7,3.6,4.2,3.6c1.6,0,2.5-1.1,4.2-3.6c1.9-2.7,4.5-6.5,9.7-6.5
		c5.2,0,7.8,3.7,9.7,6.5c1.8,2.6,2.7,3.6,4.2,3.6c1.6,0,2.5-1.1,4.2-3.6c1.9-2.7,4.5-6.5,9.7-6.5c5.2,0,7.8,3.7,9.7,6.5
		c1.8,2.6,2.7,3.6,4.2,3.6s2.5-1.1,4.2-3.6c1.9-2.7,4.5-6.5,9.7-6.5c5.2,0,7.8,3.7,9.7,6.5c1.8,2.6,2.7,3.6,4.2,3.6
		c1.6,0,2.5-1.1,4.2-3.6c1.9-2.7,4.5-6.5,9.7-6.5c5.2,0,7.8,3.7,9.7,6.5c1.8,2.6,2.7,3.6,4.2,3.6c1.6,0,2.5-1.1,4.2-3.6
		c1.9-2.7,4.5-6.5,9.7-6.5c5.2,0,7.8,3.7,9.7,6.5c1.8,2.6,2.7,3.6,4.2,3.6c1.6,0,2.5-1.1,4.2-3.6c1.9-2.7,4.5-6.5,9.7-6.5
		c5.2,0,7.8,3.7,9.7,6.5c1.8,2.6,2.7,3.6,4.2,3.6c1.6,0,2.5-1.1,4.2-3.6c1.9-2.7,4.5-6.5,9.7-6.5c5.2,0,7.8,3.7,9.7,6.5
		c1.8,2.6,2.7,3.6,4.2,3.6c1.6,0,2.5-1.1,4.2-3.6c1.9-2.7,4.5-6.5,9.7-6.5v6.6c-1.6,0-2.5,1.1-4.2,3.6
		C467.2,13,464.6,16.7,459.4,16.7z"/>
</g>
</svg>
